<?xml version="1.0" encoding="iso-8859-1"?>
<!-- Generator: Adobe Illustrator 19.0.0, SVG Export Plug-In . SVG Version: 6.00 Build 0)  -->
<svg version="1.1" id="Layer_1" xmlns="http://www.w3.org/2000/svg" xmlns:xlink="http://www.w3.org/1999/xlink" x="0px" y="0px"
	 viewBox="0 0 512 512" style="enable-background:new 0 0 512 512;" xml:space="preserve">
<path style="fill:#298983;" d="M316.514,343.238c-18.621-12.639-41.097-20.025-65.299-20.025
	c-64.295,0-116.417,52.122-116.417,116.417H0c0-138.742,112.473-251.215,251.215-251.215c52.028,0,100.362,15.816,140.457,42.904"/>
<path style="fill:#0E665D;" d="M218.61,190.718l63.879,67.003l-62.221,69.609c0,0,50.669-6.63,63.104-4.266
	c24.058,4.573,68.876-69.648,68.876-69.648s-41.827-55.98-62.694-64.228C274.25,183.141,218.61,190.718,218.61,190.718z"/>
<rect x="202.616" y="127.683" transform="matrix(-0.7071 -0.7071 0.7071 -0.7071 470.2201 584.0703)" style="fill:#A5F2E5;" width="306.918" height="133.934"/>
<polygon style="fill:#62D9C7;" points="347.892,420.24 294.916,473.215 200.213,378.512 417.297,161.428 512,256.13 
	400.309,367.823 "/>
<polyline style="fill:#88EAD9;" points="322.743,255.948 304.763,237.936 399.332,143.197 417.431,161.327 322.86,256.066 "/>
<g>
</g>
<g>
</g>
<g>
</g>
<g>
</g>
<g>
</g>
<g>
</g>
<g>
</g>
<g>
</g>
<g>
</g>
<g>
</g>
<g>
</g>
<g>
</g>
<g>
</g>
<g>
</g>
<g>
</g>
</svg>
