<?xml version="1.0" encoding="iso-8859-1"?>
<!-- Generator: Adobe Illustrator 19.0.0, SVG Export Plug-In . SVG Version: 6.00 Build 0)  -->
<svg version="1.1" id="Layer_1" xmlns="http://www.w3.org/2000/svg" xmlns:xlink="http://www.w3.org/1999/xlink" x="0px" y="0px"
	 viewBox="0 0 512 512" style="enable-background:new 0 0 512 512;" xml:space="preserve">
<g>
	<g>
		<path fill="#E0977F" d="M387.092,122.37V80.296h10.03c16.039,0,29.089-13.049,29.089-29.089V29.089C426.21,13.049,413.161,0,397.122,0H114.881
			C98.841,0,85.792,13.049,85.792,29.089v22.119c0,16.039,13.049,29.089,29.089,29.089h10.03v41.849
			c-0.001,0.076-0.012,0.149-0.012,0.225c0,36.272,14.484,70.012,40.721,94.942c1.417,1.367,2.891,2.71,4.503,4.102
			c1.608,1.39,3.115,2.639,4.548,3.769c0.724,0.578,1.46,1.155,2.208,1.712c0.721,0.555,1.453,1.096,2.196,1.627
			c0.764,0.564,1.539,1.116,2.256,1.605c0.75,0.522,1.515,1.044,2.278,1.552c0.033,0.023,0.066,0.044,0.099,0.066l0.448,0.292
			c0.56,0.365,1.127,0.734,1.75,1.132c0.006,0.004,0.009,0.007,0.015,0.01c0.008,0.006,0.017,0.01,0.027,0.016
			c0.005,0.002,0.008,0.005,0.013,0.008c0.031,0.02,0.064,0.037,0.095,0.057c10.788,6.857,22.417,12.009,34.66,15.431v14.701
			c-56.053,15.622-95.814,67.24-95.814,126.253c0,0.027,0.003,0.052,0.003,0.079v41.988h-10.026
			c-16.039,0-29.089,13.049-29.089,29.089v22.112c0,16.039,13.049,29.089,29.089,29.089h282.24
			c16.039,0,29.089-13.049,29.089-29.089v-22.112c0-16.039-13.049-29.089-29.089-29.089h-10.026v-41.988
			c0-0.027,0.003-0.052,0.003-0.079c0-59.014-39.764-110.633-95.818-126.254v-14.78C347.33,232.989,387.092,181.376,387.092,122.37z
			 M114.881,57.025c-3.208,0-5.818-2.61-5.818-5.818V29.089c0-3.208,2.61-5.818,5.818-5.818h282.241c3.208,0,5.818,2.61,5.818,5.818
			v22.119c0,3.208-2.61,5.818-5.818,5.818h-21.665h-238.91H114.881z M148.172,122.55c0.001-0.06,0.009-0.12,0.009-0.18V80.296
			h215.64v42.074c0,3.072-0.138,6.117-0.396,9.134H148.553C148.307,128.544,148.177,125.558,148.172,122.55z M375.451,454.984
			c0.012,0,0.022-0.002,0.034-0.002h21.634c3.207,0,5.818,2.61,5.818,5.818v22.112c0,3.208-2.61,5.818-5.818,5.818H114.88
			c-3.208,0-5.818-2.61-5.818-5.818v-22.112c0-3.208,2.61-5.818,5.818-5.818h21.662h238.87
			C375.424,454.982,375.437,454.984,375.451,454.984z M184.579,431.711l63.966-32.914c4.668-2.4,10.24-2.4,14.906,0l63.966,32.914
			H184.579z M363.823,389.587c0,0.018-0.002,0.035-0.002,0.054v34.632l-89.722-46.167c-11.333-5.833-24.867-5.833-36.201,0
			l-89.721,46.167v-34.632c0-0.019-0.002-0.035-0.002-0.054c0.028-51.169,36.375-95.59,86.451-105.64
			c1.167-0.232,2.272-0.635,3.287-1.187c0.244-0.133,0.477-0.283,0.71-0.43c0.08-0.051,0.165-0.095,0.243-0.149
			c0.266-0.18,0.521-0.376,0.77-0.576c0.041-0.033,0.084-0.06,0.125-0.094c0.234-0.193,0.454-0.4,0.671-0.61
			c0.051-0.05,0.108-0.095,0.159-0.147c0.187-0.187,0.36-0.387,0.533-0.586c0.073-0.084,0.152-0.162,0.222-0.249
			c0.142-0.173,0.27-0.357,0.403-0.538c0.09-0.122,0.185-0.24,0.27-0.367c0.108-0.162,0.204-0.333,0.304-0.5
			c0.093-0.154,0.192-0.304,0.277-0.462c0.098-0.18,0.179-0.369,0.266-0.554c0.072-0.152,0.151-0.3,0.216-0.455
			c0.13-0.31,0.243-0.627,0.347-0.949c0.01-0.034,0.026-0.066,0.036-0.1c0.35-1.122,0.529-2.306,0.522-3.52V253.01
			c4.047,0.375,8.122,0.571,12.206,0.571c3.946,0,7.891-0.186,11.813-0.538v19.489c0,0.002,0,0.005,0,0.006
			c0,0.795,0.079,1.578,0.236,2.338c0.008,0.038,0.021,0.073,0.029,0.112c0.071,0.329,0.152,0.656,0.251,0.977
			c0.097,0.313,0.212,0.618,0.333,0.918c0.017,0.044,0.03,0.09,0.049,0.134c0.126,0.299,0.268,0.59,0.417,0.876
			c0.023,0.045,0.042,0.092,0.066,0.136c0.133,0.248,0.282,0.485,0.432,0.721c0.051,0.08,0.095,0.165,0.149,0.245
			c0.125,0.186,0.264,0.362,0.399,0.541c0.092,0.122,0.178,0.249,0.275,0.368c0.105,0.127,0.22,0.244,0.329,0.367
			c0.142,0.159,0.279,0.321,0.429,0.472c0.077,0.077,0.162,0.147,0.24,0.221c0.193,0.184,0.386,0.368,0.592,0.539
			c0.054,0.044,0.113,0.083,0.166,0.126c0.237,0.19,0.478,0.376,0.731,0.547c0.063,0.042,0.13,0.077,0.193,0.119
			c0.249,0.162,0.5,0.321,0.763,0.463c1.006,0.548,2.104,0.949,3.263,1.181c0.001,0,0.003,0.001,0.005,0.001
			C327.44,293.988,363.797,338.412,363.823,389.587z M277.367,228.057c-0.598,0.119-1.175,0.292-1.736,0.499
			c-13.057,2.376-26.791,2.313-39.733-0.164c-0.061-0.019-0.121-0.04-0.182-0.057c-0.353-0.106-0.711-0.199-1.077-0.273
			c-12.863-2.58-25.049-7.463-36.22-14.513c-0.52-0.333-1.04-0.671-1.555-1.008l-0.406-0.265c-0.618-0.412-1.237-0.835-1.919-1.309
			c-0.576-0.394-1.143-0.796-1.699-1.209c-0.058-0.044-0.118-0.087-0.177-0.129c-0.563-0.401-1.117-0.811-1.661-1.232
			c-0.07-0.054-0.14-0.106-0.209-0.157c-0.541-0.399-1.07-0.818-1.653-1.282c-1.214-0.956-2.454-1.985-3.798-3.147
			c-1.292-1.116-2.459-2.178-3.629-3.307c-13.522-12.849-23.245-28.508-28.636-45.728h205.737
			C347.216,191.392,316.48,220.206,277.367,228.057z"/>
	</g>
</g>
<g>
	<g>
		<path fill="#E0977F" d="M255.999,309.292c-6.426,0-11.635,5.21-11.635,11.635v14.661c0,6.425,5.209,11.635,11.635,11.635
			c6.426,0,11.635-5.21,11.635-11.635v-14.661C267.634,314.502,262.425,309.292,255.999,309.292z"/>
	</g>
</g>
<g>
</g>
<g>
</g>
<g>
</g>
<g>
</g>
<g>
</g>
<g>
</g>
<g>
</g>
<g>
</g>
<g>
</g>
<g>
</g>
<g>
</g>
<g>
</g>
<g>
</g>
<g>
</g>
<g>
</g>
</svg>
